:FULLY-SPECIFIED
:FORCE-ALL-JOINTS-BE-3DOF
:DEGREES
645
root 5.55654 16.4917 -2.99286 16.7787 13.6792 -1.60357
lfemur -18.9052 22.2405 -26.6581
ltibia 35.794 0 0
lfoot -36.0616 11.1601 0
ltoes 24.4023 0 0
rfemur -56.3108 -27.0141 28.3508
rtibia 63.2871 0 0
rfoot -5.66301 -3.64459 0
rtoes 4.47322 0 0
lowerback -0.859429 -3.57879 -5.0734
upperback -2.3293 -4.78204 0.816312
thorax -1.43621 -2.30694 3.67354
lowerneck -9.54489 -7.89572 -0.224257
upperneck 3.88804 -11.0784 7.87718
head 3.47601 -5.19356 1.95068
lclavicle 5.50634e-14 1.19271e-14 0
lhumerus -42.5451 -68.2693 122.827
lradius 73.7683 0 0
lwrist 24.8853 0 0
lhand -4.44354 2.86914 0
lfingers 7.12502 0 0
lthumb 21.328 31.7155 0
rclavicle 5.50634e-14 1.19271e-14 0
rhumerus -33.5991 4.42662 -75.4864
rradius 73.7453 0 0
rwrist -19.5242 0 0
rhand -28.5506 -37.3401 0
rfingers 7.12502 0 0
rthumb -1.91768 -787.311 0
646
root 5.55158 16.46 -2.91372 16.9406 12.5577 -1.30975
lfemur -18.6857 22.5847 -26.9831
ltibia 35.957 -0 0
lfoot -36.2119 11.323 -0.00128257
ltoes 23.8248 -0 0
rfemur -57.1783 -27.5248 29.4454
rtibia 63.958 -0 0
rfoot -6.0462 -3.68701 0.000851294
rtoes 4.26112 -0 0
lowerback -0.821504 -3.64396 -5.18878
upperback -2.25581 -4.87146 0.641948
thorax -1.37895 -2.35408 3.55638
lowerneck -9.56633 -7.81069 -0.274068
upperneck 3.7782 -10.9459 7.8079
head 3.43408 -5.13531 1.94588
lclavicle 0 0 0
lhumerus -42.7789 -68.6793 123.375
lradius 73.68 -0 0
lwrist 24.8956 0 0
lhand -4.51376 2.99434 -0.000460317
lfingers 0 -0 0
lthumb 21.2605 31.8482 -0.000468805
rclavicle 0 0 0
rhumerus -34.7641 3.00124 -75.7212
rradius 71.8294 -0 0
rwrist -19.0564 0 0
rhand -28.6682 -38.8872 0.00954716
rfingers 0 -0 0
rthumb -2.03125 -68.8568 0.00921283
647
root 5.54662 16.4282 -2.83458 17.0959 11.4355 -1.02039
lfemur -18.4678 22.9301 -27.3076
ltibia 36.12 -0 0
lfoot -36.3623 11.486 -0.00213763
ltoes 23.2472 -0 0
rfemur -58.0608 -28.0207 30.5537
rtibia 64.6288 -0 0
rfoot -6.42939 -3.72944 0.00141884
rtoes 4.04901 -0 0
lowerback -0.783445 -3.70905 -5.30422
upperback -2.18205 -4.96066 0.467445
thorax -1.32159 -2.4011 3.43918
lowerneck -9.58785 -7.72569 -0.323901
upperneck 3.66824 -10.8135 7.7384
head 3.39215 -5.07707 1.94104
lclavicle 0 0 0
lhumerus -43.0281 -69.0885 123.938
lradius 73.5918 -0 0
lwrist 24.9059 0 0
lhand -4.58397 3.11955 -0.000767197
lfingers 0 -0 0
lthumb 21.1931 31.981 -0.000781344
rclavicle 0 0 0
rhumerus -35.9221 1.5714 -75.9267
rradius 69.9135 -0 0
rwrist -18.5886 0 0
rhand -28.786 -40.4343 0.0159158
rfingers 0 -0 0
rthumb -2.14503 -70.4027 0.0153585
648
root 5.54166 16.3965 -2.75544 17.2448 10.3124 -0.735206
lfemur -18.2514 23.2766 -27.6314
ltibia 36.283 -0 0
lfoot -36.5126 11.6489 -0.00256516
ltoes 22.6697 -0 0
rfemur -58.958 -28.5012 31.6756
rtibia 65.2997 -0 0
rfoot -6.81258 -3.77187 0.00170263
rtoes 3.83691 -0 0
lowerback -0.745252 -3.77407 -5.4197
upperback -2.10799 -5.04963 0.292803
thorax -1.26413 -2.448 3.32192
lowerneck -9.60943 -7.6407 -0.373756
upperneck 3.55817 -10.6813 7.66866
head 3.35022 -5.01883 1.93616
lclavicle 0 0 0
lhumerus -43.2934 -69.4968 124.516
lradius 73.5035 -0 0
lwrist 24.9162 0 0
lhand -4.65419 3.24475 -0.000920638
lfingers 0 -0 0
lthumb 21.1256 32.1137 -0.000937614
rclavicle 0 0 0
rhumerus -37.0745 0.13771 -76.1032
rradius 67.9976 -0 0
rwrist -18.1208 0 0
rhand -28.904 -41.9814 0.0191013
rfingers 0 -0 0
rthumb -2.25894 -71.9486 0.0184324
649
root 5.53671 16.3648 -2.67631 17.3877 9.18871 -0.45394
lfemur -18.0366 23.6242 -27.9546
ltibia 36.4461 -0 0
lfoot -36.663 11.8118 -0.00256516
ltoes 22.0921 -0 0
rfemur -59.8699 -28.9661 32.8111
rtibia 65.9706 -0 0
rfoot -7.19576 -3.81431 0.00170263
rtoes 3.6248 -0 0
lowerback -0.706925 -3.83901 -5.53524
upperback -2.03366 -5.13837 0.118022
thorax -1.20657 -2.49479 3.20461
lowerneck -9.63109 -7.55573 -0.423634
upperneck 3.44798 -10.5492 7.5987
head 3.30829 -4.96059 1.93124
lclavicle 0 0 0
lhumerus -43.5759 -69.904 125.112
lradius 73.4153 -0 0
lwrist 24.9264 0 0
lhand -4.72441 3.36995 -0.000920638
lfingers 0 -0 0
lthumb 21.0582 32.2464 -0.000937614
rclavicle 0 0 0
rhumerus -38.2228 -1.29923 -76.2509
rradius 66.0817 -0 0
rwrist -17.6531 0 0
rhand -29.0219 -43.5285 0.0191013
rfingers 0 -0 0
rthumb -2.37288 -73.4944 0.0184324
650
root 5.53175 16.3331 -2.59717 17.5245 8.06431 -0.17634
lfemur -17.8234 23.973 -28.2773
ltibia 36.6091 -0 0
lfoot -36.8133 11.9747 -0.00213763
ltoes 21.5146 -0 0
rfemur -60.7962 -29.415 33.96
rtibia 66.6415 -0 0
rfoot -7.57895 -3.85674 0.00141884
rtoes 3.4127 -0 0
lowerback -0.668463 -3.90388 -5.65083
upperback -1.95905 -5.22689 -0.0568995
thorax -1.14892 -2.54146 3.08725
lowerneck -9.65281 -7.47078 -0.473535
upperneck 3.33767 -10.4172 7.52851
head 3.26635 -4.90236 1.92627
lclavicle 0 0 0
lhumerus -43.8766 -70.3103 125.725
lradius 73.327 -0 0
lwrist 24.9367 0 0
lhand -4.79463 3.49515 -0.000767197
lfingers 0 -0 0
lthumb 20.9907 32.3791 -0.000781344
rclavicle 0 0 0
rhumerus -39.3683 -2.73884 -76.3698
rradius 64.1658 -0 0
rwrist -17.1853 0 0
rhand -29.1399 -45.0756 0.0159158
rfingers 0 -0 0
rthumb -2.48679 -75.0403 0.0153585
651
root 5.52679 16.3013 -2.51803 17.6554 6.93927 0.0978383
lfemur -17.6118 24.3228 -28.5995
ltibia 36.7721 -0 0
lfoot -36.9637 12.1377 -0.00128257
ltoes 20.937 -0 0
rfemur -61.7368 -29.8474 35.1221
rtibia 67.3123 -0 0
rfoot -7.96214 -3.89917 0.000851294
rtoes 3.20059 -0 0
lowerback -0.629868 -3.96866 -5.76647
upperback -1.88415 -5.31519 -0.231961
thorax -1.09117 -2.58801 2.96984
lowerneck -9.6746 -7.38584 -0.523458
upperneck 3.22725 -10.2854 7.4581
head 3.22442 -4.84413 1.92126
lclavicle 0 0 0
lhumerus -44.1964 -70.7153 126.357
lradius 73.2388 -0 0
lwrist 24.947 0 0
lhand -4.86484 3.62036 -0.000460317
lfingers 0 -0 0
lthumb 20.9233 32.5119 -0.000468805
rclavicle 0 0 0
rhumerus -40.5127 -4.18054 -76.4601
rradius 62.2499 -0 0
rwrist -16.7175 0 0
rhand -29.2577 -46.6227 0.00954716
rfingers 0 -0 0
rthumb -2.60057 -76.5862 0.00921283
652
root 5.52183 16.2696 -2.43889 17.7807 5.81363 0.36883
lfemur -17.4017 24.6737 -28.9211
ltibia 36.9351 0 0
lfoot -37.114 12.3006 0
ltoes 20.3595 0 0
rfemur -62.6914 -30.2631 36.2973
rtibia 67.9832 0 0
rfoot -8.34533 -3.94159 0
rtoes 2.98849 0 0
lowerback -0.591138 -4.03337 -5.88217
upperback -1.80897 -5.40325 -0.407164
thorax -1.03332 -2.63444 2.85238
lowerneck -9.69647 -7.30093 -0.573404
upperneck 3.11671 -10.1537 7.38745
head 3.18248 -4.7859 1.91621
lclavicle -3.79679e-14 -7.95139e-15 0
lhumerus -44.5367 -71.1192 127.009
lradius 73.1505 0 0
lwrist 24.9573 0 0
lhand -4.93506 3.74556 0
lfingers 7.12502 0 0
lthumb 20.8558 32.6446 0
rclavicle -3.79679e-14 -7.95139e-15 0
rhumerus -41.6572 -5.62375 -76.5216
rradius 60.334 0 0
rwrist -16.2497 0 0
rhand -29.3753 -48.1698 0
rfingers 7.12502 0 0
rthumb -2.71414 -798.132 0
653
root 5.51994 16.236 -2.33063 17.7411 4.8408 0.696157
lfemur -16.7759 24.6098 -29.3094
ltibia 36.8094 -0 0
lfoot -37.3965 13.0568 -0.0111932
ltoes 19.5132 -0 0
rfemur -62.736 -30.4019 36.7921
rtibia 68.3175 -0 0
rfoot -9.00091 -5.11264 0.0402638
rtoes 3.64167 -0 0
lowerback -0.528847 -4.1876 -5.95807
upperback -1.7745 -5.61272 -0.445212
thorax -1.00946 -2.73987 2.85474
lowerneck -9.7448 -7.14261 -0.588062
upperneck 2.89359 -9.91126 7.17976
head 3.09249 -4.67934 1.86683
lclavicle 0 0 0
lhumerus -43.9518 -71.3948 126.738
lradius 73.4994 -0 0
lwrist 25.0715 0 0
lhand -4.78212 3.73295 -0.000100983
lfingers 0 -0 0
lthumb 21.0027 32.6153 -0.000225147
rclavicle 0 0 0
rhumerus -42.6985 -6.49086 -75.6181
rradius 59.8437 -0 0
rwrist -16.312 0 0
rhand -29.3416 -48.5076 -0.000595638
rfingers 0 -0 0
rthumb -2.68162 -78.4703 -0.000576024
654
root 5.51805 16.2024 -2.22238 17.696 3.86822 1.02373
lfemur -16.15 24.5498 -29.6982
ltibia 36.6838 -0 0
lfoot -37.6792 13.813 -0.0186566
ltoes 18.6668 -0 0
rfemur -62.782 -30.5404 37.2877
rtibia 68.6519 -0 0
rfoot -9.65718 -6.28406 0.0671186
rtoes 4.29485 -0 0
lowerback -0.466339 -4.34174 -6.03416
upperback -1.73989 -5.82217 -0.4834
thorax -0.985601 -2.8453 2.85705
lowerneck -9.79315 -6.98431 -0.60285
upperneck 2.66974 -9.66962 6.97127
head 3.00242 -4.57286 1.8173
lclavicle 0 0 0
lhumerus -43.3542 -71.6695 126.454
lradius 73.8482 -0 0
lwrist 25.1857 0 0
lhand -4.62917 3.72034 -0.000168306
lfingers 0 -0 0
lthumb 21.1496 32.5861 -0.000375246
rclavicle 0 0 0
rhumerus -43.7553 -7.34137 -74.6973
rradius 59.3534 -0 0
rwrist -16.3743 0 0
rhand -29.308 -48.8455 -0.000992742
rfingers 0 -0 0
rthumb -2.6491 -78.8086 -0.000960051
655
root 5.51616 16.1688 -2.11412 17.6453 2.8959 1.35175
lfemur -15.5239 24.4936 -30.0875
ltibia 36.5581 -0 0
lfoot -37.9619 14.5693 -0.0223886
ltoes 17.8205 -0 0
rfemur -62.8295 -30.6786 37.7841
rtibia 68.9862 -0 0
rfoot -10.3139 -7.45573 0.0805497
rtoes 4.94803 -0 0
lowerback -0.403613 -4.49581 -6.11043
upperback -1.70511 -6.0316 -0.52173
thorax -0.961744 -2.95072 2.85932
lowerneck -9.84153 -6.82602 -0.617767
upperneck 2.44516 -9.42879 6.76197
head 2.91227 -4.46646 1.7676
lclavicle 0 0 0
lhumerus -42.7435 -71.9432 126.156
lradius 74.1971 -0 0
lwrist 25.2999 0 0
lhand -4.47623 3.70773 -0.000201967
lfingers 0 -0 0
lthumb 21.2965 32.5568 -0.000450295
rclavicle 0 0 0
rhumerus -44.828 -8.17475 -73.7589
rradius 58.8631 -0 0
rwrist -16.4366 0 0
rhand -29.2743 -49.1833 -0.0011913
rfingers 0 -0 0
rthumb -2.61658 -79.1469 -0.00115207
